<?xml version="1.0" encoding="UTF-8" standalone="no"?>
<svg
   xmlns:dc="http://purl.org/dc/elements/1.1/"
   xmlns:cc="http://creativecommons.org/ns#"
   xmlns:rdf="http://www.w3.org/1999/02/22-rdf-syntax-ns#"
   xmlns:svg="http://www.w3.org/2000/svg"
   xmlns="http://www.w3.org/2000/svg"
   viewBox="0 0 80 80"
   height="80"
   width="80"
   xml:space="preserve"
   version="1.1"
   id="svg2"><metadata
     id="metadata8"><rdf:RDF><cc:Work
         rdf:about=""><dc:format>image/svg+xml</dc:format><dc:type
           rdf:resource="http://purl.org/dc/dcmitype/StillImage" /><dc:title></dc:title></cc:Work></rdf:RDF></metadata><defs
     id="defs6"><clipPath
       id="clipPath16"
       clipPathUnits="userSpaceOnUse"><path
         id="path18"
         d="M 0,64 64,64 64,0 0,0 0,64 Z" /></clipPath></defs><g
     transform="matrix(1.25,0,0,-1.25,0,80)"
     id="g10"><g
       style="fill:#dd432b;fill-opacity:1"
       id="g12"><g
         style="fill:#dd432b;fill-opacity:1"
         clip-path="url(#clipPath16)"
         id="g14"><path
           id="path20"
           style="fill:#dd432b;fill-opacity:1;fill-rule:nonzero;stroke:none"
           d="m 28.25,25 7.5,0 0,-7.5 -7.5,0 0,7.5 z m 0,21.5 7.5,0 0,-7.675 -1.6,-10.325 -4.14,0 -1.76,10.405 0,7.595 z M 32,9 C 19.303,9.014 9.014,19.303 9,32 9.014,44.697 19.303,54.986 32,55 44.697,54.986 54.986,44.697 55,32 54.986,19.303 44.697,9.014 32,9 m 0,55 C 14.327,64 0,49.673 0,32 0,14.327 14.327,0 32,0 49.673,0 64,14.327 64,32 64,49.673 49.673,64 32,64" /></g></g></g></svg>